<svg t="1661135516374" class="icon" viewBox="0 0 1024 1024" version="1.1" xmlns="http://www.w3.org/2000/svg" p-id="10524" width="64" height="64"><path d="M951.808 209.408L567.978667 13.482667a125.781333 125.781333 0 0 0-113.152 0L38.912 217.429333A69.461333 69.461333 0 0 0 0 279.722667v417.621333c0 49.664 27.477333 95.061333 70.826667 117.077333l384 195.925334a125.952 125.952 0 0 0 57.173333 13.482666 125.781333 125.781333 0 0 0 57.173333-11.264l384-195.925333c44.032-22.357333 71.68-68.778667 70.826667-119.296V325.973333c-0.341333-49.834667-28.330667-95.061333-72.192-116.565333z m-459.093333-118.442667a41.984 41.984 0 0 1 37.546666 0l338.261334 171.349334a15.36 15.36 0 0 1-0.170667 27.477333l-116.053333 56.490667a15.36 15.36 0 0 1-14.165334-0.341334L398.848 156.16a10.752 10.752 0 0 1 0.512-18.944zM469.333333 872.448a29.354667 29.354667 0 0 1-42.666666 26.112L108.714667 736.597333a43.690667 43.690667 0 0 1-23.381334-39.253333V388.096a29.354667 29.354667 0 0 1 42.837334-26.112l325.461333 168.277333A29.354667 29.354667 0 0 1 469.333333 556.373333z m-155.306666-664.064l316.928 177.152a11.264 11.264 0 0 1-0.512 19.968l-111.445334 54.613333a15.36 15.36 0 0 1-13.824-0.170666L162.474667 282.112a15.36 15.36 0 0 1 0.170666-27.306667l95.914667-47.616a59.392 59.392 0 0 1 55.466667 1.194667z m257.024 322.901333l325.461333-159.061333a29.354667 29.354667 0 0 1 42.154667 26.453333v298.666667a43.690667 43.690667 0 0 1-23.381334 39.253333L597.333333 898.56a29.354667 29.354667 0 0 1-42.666666-26.112V557.568a29.354667 29.354667 0 0 1 16.384-26.282667z" p-id="10525" fill="#409EFF"></path><path d="M376.490667 711.68l-202.069334-107.349333A33.109333 33.109333 0 0 1 156.842667 575.146667v-29.525334a15.36 15.36 0 0 1 22.528-13.653333l201.898666 107.349333a33.109333 33.109333 0 0 1 17.578667 29.184V698.026667a15.36 15.36 0 0 1-22.357333 13.653333z" p-id="10526" fill="#409EFF"></path></svg>